<svg width="38" height="38" viewBox="0 0 38 38" fill="none" xmlns="http://www.w3.org/2000/svg">
<path d="M37 15.7273C37 27.1818 19 37 19 37C19 37 1 27.1818 1 15.7273C1 11.8214 2.89642 8.07542 6.27208 5.31352C9.64773 2.55162 14.2261 1 19 1C23.7739 1 28.3523 2.55162 31.7279 5.31352C35.1036 8.07542 37 11.8214 37 15.7273Z" stroke="black" stroke-width="2" stroke-linecap="round" stroke-linejoin="round"/>
<path d="M19 20.6365C22.3137 20.6365 25 18.4387 25 15.7274C25 13.0162 22.3137 10.8184 19 10.8184C15.6863 10.8184 13 13.0162 13 15.7274C13 18.4387 15.6863 20.6365 19 20.6365Z" stroke="black" stroke-width="2" stroke-linecap="round" stroke-linejoin="round"/>
</svg>
