<svg width="38" height="38" viewBox="0 0 38 38" fill="none" xmlns="http://www.w3.org/2000/svg">
<path d="M37 7V31C37 32.5913 36.5259 34.1174 35.682 35.2426C34.8381 36.3679 33.6935 37 32.5 37H5.5C4.30653 37 3.16193 36.3679 2.31802 35.2426C1.47411 34.1174 1 32.5913 1 31V7" stroke="#1A1A1A" stroke-width="2" stroke-linecap="round" stroke-linejoin="round"/>
<path d="M37 7C37 5.4087 36.5259 3.88258 35.682 2.75736C34.8381 1.63214 33.6935 1 32.5 1H5.5C4.30653 1 3.16193 1.63214 2.31802 2.75736C1.47411 3.88258 1 5.4087 1 7L16.615 20C17.3302 20.596 18.1566 20.912 19 20.912C19.8434 20.912 20.6698 20.596 21.385 20L37 7Z" stroke="#1A1A1A" stroke-width="2" stroke-linecap="round" stroke-linejoin="round"/>
</svg>
