<svg width="36" height="36" viewBox="0 0 36 36" fill="none" xmlns="http://www.w3.org/2000/svg">
<path d="M22.0528 31.2933L22.0692 31.3047C23.4859 32.2068 25.1679 32.5985 26.8374 32.4151C28.5068 32.2318 30.0638 31.4844 31.2509 30.2964L32.2822 29.2651C32.5107 29.0367 32.692 28.7655 32.8157 28.467C32.9394 28.1685 33.0031 27.8486 33.0031 27.5255C33.0031 27.2024 32.9394 26.8824 32.8157 26.584C32.692 26.2855 32.5107 26.0143 32.2822 25.7859L27.9324 21.4393C27.704 21.2108 27.4328 21.0295 27.1343 20.9058C26.8358 20.7821 26.5159 20.7185 26.1928 20.7185C25.8697 20.7185 25.5498 20.7821 25.2513 20.9058C24.9528 21.0295 24.6816 21.2108 24.4532 21.4393C23.992 21.9004 23.3666 22.1594 22.7144 22.1594C22.0623 22.1594 21.4368 21.9004 20.9756 21.4393L14.0205 14.4826C13.5595 14.0214 13.3004 13.396 13.3004 12.7438C13.3004 12.0917 13.5595 11.4662 14.0205 11.005C14.2491 10.7766 14.4304 10.5055 14.5541 10.207C14.6777 9.90847 14.7414 9.58854 14.7414 9.26544C14.7414 8.94233 14.6777 8.6224 14.5541 8.32391C14.4304 8.02542 14.2491 7.75423 14.0205 7.52584L9.67234 3.1793C9.21114 2.71824 8.5857 2.45923 7.93356 2.45923C7.28142 2.45923 6.65598 2.71824 6.19478 3.1793L5.16184 4.2106C3.97412 5.39795 3.22701 6.95498 3.04396 8.62441C2.86092 10.2938 3.2529 11.9758 4.15514 13.3923L4.16498 13.4087C8.92991 20.4585 15.0021 26.5296 22.0528 31.2933V31.2933Z" stroke="#1A1A1A" stroke-width="2" stroke-linecap="round" stroke-linejoin="round"/>
</svg>
