<svg width="23" height="22" viewBox="0 0 23 22" fill="none" xmlns="http://www.w3.org/2000/svg">
<path d="M16.6621 20.2308H6.34155C5.95052 20.2308 5.57551 20.0687 5.29902 19.7802C5.02252 19.4917 4.86719 19.1004 4.86719 18.6923V4.84619H18.1364V18.6923C18.1364 19.1004 17.9811 19.4917 17.7046 19.7802C17.4281 20.0687 17.0531 20.2308 16.6621 20.2308Z" stroke="#DB3A34" stroke-width="2" stroke-linecap="round" stroke-linejoin="round"/>
<path d="M9.28906 15.6155V9.46167" stroke="#DB3A34" stroke-width="2" stroke-linecap="round" stroke-linejoin="round"/>
<path d="M13.7109 15.6155V9.46167" stroke="#DB3A34" stroke-width="2" stroke-linecap="round" stroke-linejoin="round"/>
<path d="M1.91797 4.84619H21.0846" stroke="#DB3A34" stroke-width="2" stroke-linecap="round" stroke-linejoin="round"/>
<path d="M13.7138 1.76929H9.29077C8.89974 1.76929 8.52473 1.93137 8.24824 2.21989C7.97174 2.50841 7.81641 2.89972 7.81641 3.30775V4.84621H15.1882V3.30775C15.1882 2.89972 15.0329 2.50841 14.7564 2.21989C14.4799 1.93137 14.1049 1.76929 13.7138 1.76929Z" stroke="#DB3A34" stroke-width="2" stroke-linecap="round" stroke-linejoin="round"/>
</svg>
