<svg width="124" height="128" viewBox="0 0 124 128" fill="none" xmlns="http://www.w3.org/2000/svg">
<path d="M42.5878 4.20996C56.4164 -0.537472 71.4537 -0.406898 85.1978 4.57996C92.7457 7.40607 99.6613 11.6948 105.548 17.2C103.548 19.34 101.438 21.34 99.3978 23.42C95.5178 27.2933 91.6411 31.1533 87.7678 35C83.9067 31.3067 79.2358 28.5672 74.1278 27C67.5916 25.0264 60.638 24.8912 54.03 26.6094C47.422 28.3275 41.4149 31.8326 36.6678 36.74C32.5241 40.9553 29.3861 46.0521 27.4878 51.65L6.75781 35.6C14.1779 20.8856 27.0253 9.6302 42.5878 4.20996Z" fill="#E33629"/>
<path d="M1.26341 51.5001C2.37681 45.9778 4.22667 40.63 6.76341 35.6001L27.4934 51.6901C24.7823 59.6763 24.7823 68.3339 27.4934 76.3201C20.5867 81.6534 13.6767 87.0134 6.76341 92.4001C0.414916 79.7633 -1.52126 65.3651 1.26341 51.5001Z" fill="#F8BD00"/>
<path d="M63.2701 52.1499H122.79C124.825 63.3193 124.274 74.8064 121.18 85.7299C118.332 95.7747 112.801 104.853 105.18 111.99C98.4901 106.77 91.7701 101.59 85.0801 96.3699C88.3968 94.1327 91.2278 91.2488 93.4032 87.8912C95.5786 84.5336 97.0537 80.7713 97.7401 76.8299H63.2701C63.2601 68.6099 63.2701 60.3799 63.2701 52.1499Z" fill="#587DBD"/>
<path d="M6.75 92.4001C13.6633 87.0667 20.5733 81.7067 27.48 76.3201C30.1521 84.162 35.2341 90.959 42 95.7401C46.2195 98.7237 51.015 100.795 56.08 101.82C61.0705 102.748 66.1895 102.748 71.18 101.82C76.1563 100.979 80.9014 99.1054 85.11 96.3201C91.8 101.54 98.52 106.72 105.21 111.94C97.8889 118.597 88.9642 123.239 79.31 125.41C68.6541 127.915 57.5492 127.795 46.95 125.06C38.567 122.822 30.7368 118.876 23.95 113.47C16.7673 107.766 10.9003 100.579 6.75 92.4001Z" fill="#319F43"/>
</svg>
