<svg width="81" height="56" viewBox="0 0 81 56" fill="none" xmlns="http://www.w3.org/2000/svg">
<path fill-rule="evenodd" clip-rule="evenodd" d="M47.0652 1.20049C47.7457 1.96512 48.0792 2.98764 47.984 4.01681L47.5198 9.03499C47.3454 10.9201 45.7972 12.3604 43.9453 12.3604L34.8141 12.4518C32.1264 12.4787 29.9408 14.6256 29.8661 17.3124L29 48.4278C29 50.4553 27.983 52.0989 26 52.0989H19.389C17.406 52.0989 15.7985 50.4553 15.7985 48.4278V17.3604C15.7985 14.5989 13.56 12.3604 10.7985 12.3604H3.59046C1.6075 12.3604 0 10.7168 0 8.68927V3.67109C0 1.6436 1.6075 0 3.59046 0H44.4095C45.4206 0 46.3848 0.435861 47.0652 1.20049ZM14.1489 8.90218C16.8513 8.95667 19.0212 11.149 19.0479 13.8518L19.3588 45.3681C19.3755 47.0628 20.7541 48.4278 22.4488 48.4278C24.1402 48.4278 25.5172 47.0681 25.5387 45.3769L25.9385 13.8518C25.9727 11.149 28.1489 8.96279 30.8515 8.91599L41.6796 8.7285C42.9691 8.70617 44.0352 7.71712 44.154 6.43295C44.2911 4.95061 43.1245 3.67109 41.6359 3.67109H6.12484C4.72514 3.67109 3.59046 4.80577 3.59046 6.20547C3.59046 7.58526 4.69424 8.71152 6.07375 8.73934L14.1489 8.90218Z" fill="white"/>
<path d="M37.856 41.128C37.168 41.128 36.72 41.592 36.512 42.52C36.32 43.432 36.224 44.528 36.224 45.808V52H33.584V39.76L35.792 39.472L35.912 41.632C36.136 40.912 36.528 40.344 37.088 39.928C37.648 39.496 38.296 39.28 39.032 39.28C39.832 39.28 40.464 39.512 40.928 39.976C41.408 40.44 41.648 41.072 41.648 41.872C41.648 43.168 41.024 43.816 39.776 43.816C39.36 43.816 39.04 43.728 38.816 43.552C38.928 43.136 38.984 42.776 38.984 42.472C38.984 41.576 38.608 41.128 37.856 41.128ZM52.5568 50.032C52.5568 50.816 52.8048 51.344 53.3008 51.616C53.1728 51.856 52.9808 52.04 52.7248 52.168C52.4848 52.296 52.2048 52.36 51.8848 52.36C51.4208 52.36 51.0368 52.232 50.7328 51.976C50.4288 51.704 50.2448 51.344 50.1808 50.896C49.9248 51.424 49.5088 51.824 48.9328 52.096C48.3728 52.384 47.7648 52.528 47.1088 52.528C45.9568 52.528 45.0768 52.28 44.4688 51.784C43.8768 51.272 43.4848 50.584 43.2928 49.72C43.1008 48.84 43.0048 47.712 43.0048 46.336V39.76H45.6448V46.216C45.6448 47.192 45.6768 48 45.7408 48.64C45.8208 49.264 46.0208 49.8 46.3408 50.248C46.6608 50.696 47.1488 50.92 47.8047 50.92C48.5088 50.92 49.0368 50.656 49.3888 50.128C49.7408 49.584 49.9168 48.912 49.9168 48.112V39.76H52.5568V50.032ZM59.7142 40.552C59.2342 40.552 58.8502 40.68 58.5622 40.936C58.2742 41.176 58.1302 41.528 58.1302 41.992C58.1302 42.616 58.3382 43.128 58.7542 43.528C59.1862 43.912 59.8422 44.344 60.7222 44.824C61.4262 45.208 61.9862 45.552 62.4022 45.856C62.8342 46.16 63.2022 46.552 63.5062 47.032C63.8102 47.496 63.9622 48.064 63.9622 48.736C63.9622 49.952 63.5222 50.888 62.6422 51.544C61.7782 52.2 60.6742 52.528 59.3302 52.528C58.1622 52.528 57.1782 52.328 56.3782 51.928C55.5942 51.528 55.2022 50.864 55.2022 49.936C55.2022 49.392 55.3702 48.976 55.7062 48.688C56.0422 48.4 56.4982 48.256 57.0742 48.256C57.4902 48.256 57.8102 48.344 58.0342 48.52C57.9062 48.904 57.8422 49.264 57.8422 49.6C57.8422 50.112 58.0022 50.52 58.3222 50.824C58.6422 51.112 59.0742 51.256 59.6182 51.256C60.2102 51.256 60.6582 51.104 60.9622 50.8C61.2822 50.48 61.4422 50.016 61.4422 49.408C61.4422 48.784 61.2262 48.28 60.7942 47.896C60.3782 47.496 59.7302 47.056 58.8502 46.576C58.1462 46.176 57.5782 45.824 57.1462 45.52C56.7302 45.216 56.3702 44.832 56.0662 44.368C55.7622 43.888 55.6102 43.312 55.6102 42.64C55.6102 41.568 56.0422 40.744 56.9062 40.168C57.7702 39.576 58.8182 39.28 60.0502 39.28C61.1862 39.28 62.1142 39.488 62.8342 39.904C63.5702 40.304 63.9382 40.968 63.9382 41.896C63.9382 42.44 63.7622 42.856 63.4102 43.144C63.0742 43.432 62.6182 43.576 62.0422 43.576C61.6262 43.576 61.3062 43.488 61.0822 43.312C61.2102 42.928 61.2742 42.568 61.2742 42.232C61.2742 41.704 61.1382 41.296 60.8662 41.008C60.6102 40.704 60.2262 40.552 59.7142 40.552ZM65.0263 40.84L65.0023 40.12C65.7223 39.832 66.4023 39.448 67.0423 38.968C67.6983 38.488 68.2503 37.96 68.6983 37.384H69.4423V39.76H71.6503V40.84H69.3943V49.576C69.3943 50.056 69.4823 50.416 69.6583 50.656C69.8343 50.896 70.1143 51.048 70.4983 51.112C70.4183 51.48 70.2023 51.776 69.8503 52C69.5143 52.24 69.1223 52.36 68.6743 52.36C67.3783 52.36 66.7303 51.624 66.7303 50.152V40.84H65.0263Z" fill="white"/>
<path d="M37.856 26.128C37.168 26.128 36.72 26.592 36.512 27.52C36.32 28.432 36.224 29.528 36.224 30.808V37H33.584V24.76L35.792 24.472L35.912 26.632C36.136 25.912 36.528 25.344 37.088 24.928C37.648 24.496 38.296 24.28 39.032 24.28C39.832 24.28 40.464 24.512 40.928 24.976C41.408 25.44 41.648 26.072 41.648 26.872C41.648 28.168 41.024 28.816 39.776 28.816C39.36 28.816 39.04 28.728 38.816 28.552C38.928 28.136 38.984 27.776 38.984 27.472C38.984 26.576 38.608 26.128 37.856 26.128ZM49.5568 35.896C49.2528 36.456 48.8048 36.864 48.2128 37.12C47.6368 37.392 46.9808 37.528 46.2448 37.528C45.1408 37.528 44.2128 37.192 43.4608 36.52C42.7248 35.848 42.3568 34.976 42.3568 33.904C42.3568 31.312 44.6688 30.016 49.2928 30.016V27.928C49.2928 27.128 49.1728 26.536 48.9328 26.152C48.6928 25.752 48.2368 25.552 47.5648 25.552C47.0048 25.552 46.5408 25.704 46.1728 26.008C45.8048 26.296 45.6208 26.704 45.6208 27.232C45.6208 27.568 45.6848 27.928 45.8128 28.312C45.5888 28.488 45.2688 28.576 44.8528 28.576C44.2768 28.576 43.8208 28.432 43.4848 28.144C43.1488 27.856 42.9808 27.44 42.9808 26.896C42.9808 26.128 43.4128 25.504 44.2768 25.024C45.1408 24.528 46.2928 24.28 47.7328 24.28C48.7888 24.28 49.6208 24.44 50.2288 24.76C50.8368 25.064 51.2688 25.544 51.5248 26.2C51.7968 26.84 51.9328 27.704 51.9328 28.792V35.032C51.9328 35.816 52.1808 36.344 52.6768 36.616C52.5488 36.856 52.3568 37.04 52.1008 37.168C51.8608 37.296 51.5808 37.36 51.2608 37.36C50.7968 37.36 50.4128 37.232 50.1088 36.976C49.8048 36.704 49.6208 36.344 49.5568 35.896ZM47.1808 35.92C47.8848 35.92 48.4128 35.656 48.7648 35.128C49.1168 34.584 49.2928 33.912 49.2928 33.112V31.216C46.5888 31.216 45.2368 32.08 45.2368 33.808C45.2368 34.448 45.4048 34.96 45.7408 35.344C46.0928 35.728 46.5728 35.92 47.1808 35.92ZM63.6208 24.76L60.0448 37H56.7808L53.4688 24.76H56.2048L58.6528 35.392L61.1008 24.76H63.6208ZM72.9058 33.616C73.2738 33.792 73.4578 34.136 73.4578 34.648C73.4578 35.224 73.2658 35.736 72.8818 36.184C72.4978 36.616 72.0018 36.944 71.3938 37.168C70.7858 37.408 70.1698 37.528 69.5458 37.528C67.7858 37.528 66.4818 36.96 65.6338 35.824C64.7858 34.672 64.3618 33.128 64.3618 31.192C64.3618 29.128 64.8178 27.464 65.7298 26.2C66.6578 24.92 68.0577 24.28 69.9297 24.28C71.1138 24.28 72.0658 24.592 72.7858 25.216C73.5058 25.824 73.8658 26.688 73.8658 27.808C73.8658 29.2 73.3778 30.176 72.4018 30.736C71.4418 31.296 70.1298 31.576 68.4658 31.576C68.0018 31.576 67.5618 31.56 67.1458 31.528C67.1938 32.792 67.4018 33.8 67.7698 34.552C68.1538 35.304 68.8258 35.68 69.7858 35.68C70.4898 35.68 71.1058 35.504 71.6338 35.152C72.1778 34.784 72.6018 34.272 72.9058 33.616ZM69.5458 25.648C68.6818 25.648 68.0738 26.104 67.7218 27.016C67.3698 27.912 67.1778 29.016 67.1458 30.328C67.6258 30.36 67.9778 30.376 68.2018 30.376C70.2178 30.376 71.2258 29.568 71.2258 27.952C71.2258 27.296 71.0818 26.752 70.7938 26.32C70.5218 25.872 70.1058 25.648 69.5458 25.648ZM78.8579 19.912V35.032C78.8579 35.816 79.1059 36.344 79.6019 36.616C79.4739 36.856 79.2579 37.04 78.9539 37.168C78.6659 37.296 78.3619 37.36 78.0419 37.36C77.4339 37.36 76.9779 37.184 76.6739 36.832C76.3699 36.48 76.2179 35.984 76.2179 35.344V20.2L78.8579 19.912Z" fill="white"/>
</svg>
