<svg width="118" height="96" viewBox="0 0 118 96" fill="none" xmlns="http://www.w3.org/2000/svg">
<path fill-rule="evenodd" clip-rule="evenodd" d="M67.4612 24.6171C68.2352 25.4872 68.6147 26.6507 68.5063 27.8218L67.9782 33.5322C67.7798 35.6774 66.0187 37.3163 63.912 37.3163L52.8626 37.4269C50.1749 37.4539 47.9894 39.6008 47.9146 42.2876L46.911 78.3587C46.911 80.6658 45.754 82.5361 43.4983 82.5361H35.9779C33.7222 82.5361 31.8936 80.6658 31.8936 78.3587V42.3163C31.8936 39.5548 29.655 37.3163 26.8936 37.3163H18.0062C15.7505 37.3163 13.9219 35.4459 13.9219 33.1388V27.4284C13.9219 25.1213 15.7505 23.251 18.0062 23.251H64.4401C65.5903 23.251 66.6871 23.747 67.4612 24.6171ZM30.6844 33.3945C33.3868 33.449 35.5566 35.6414 35.5833 38.3442L35.9436 74.8781C35.9626 76.8059 37.5308 78.3587 39.4586 78.3587C41.3826 78.3587 42.9491 76.8119 42.9735 74.888L43.4368 38.3442C43.4711 35.6414 45.6472 33.4552 48.3498 33.4084L61.3338 33.1835C62.8012 33.158 64.0143 32.0325 64.1495 30.5712C64.3055 28.8844 62.978 27.4284 61.284 27.4284H20.8902C19.2974 27.4284 18.0062 28.7196 18.0062 30.3124C18.0062 31.8825 19.2622 33.1641 20.832 33.1958L30.6844 33.3945Z" fill="white"/>
<path d="M57.1523 70.2913C56.3496 70.2913 55.827 70.8327 55.5843 71.9153C55.3603 72.9793 55.2483 74.258 55.2483 75.7513V82.9753H52.1683V68.6953L54.7443 68.3593L54.8843 70.8793C55.1456 70.0393 55.603 69.3767 56.2563 68.8913C56.9096 68.3873 57.6656 68.1353 58.5243 68.1353C59.4576 68.1353 60.195 68.406 60.7363 68.9473C61.2963 69.4887 61.5763 70.226 61.5763 71.1593C61.5763 72.6713 60.8483 73.4273 59.3923 73.4273C58.907 73.4273 58.5336 73.3247 58.2723 73.1193C58.403 72.634 58.4683 72.214 58.4683 71.8593C58.4683 70.814 58.0296 70.2913 57.1523 70.2913ZM74.3032 80.6793C74.3032 81.594 74.5925 82.21 75.1712 82.5273C75.0219 82.8073 74.7979 83.022 74.4992 83.1713C74.2192 83.3207 73.8925 83.3953 73.5192 83.3953C72.9779 83.3953 72.5299 83.246 72.1752 82.9473C71.8205 82.63 71.6059 82.21 71.5312 81.6873C71.2325 82.3033 70.7472 82.77 70.0752 83.0873C69.4219 83.4233 68.7125 83.5913 67.9472 83.5913C66.6032 83.5913 65.5765 83.302 64.8672 82.7233C64.1765 82.126 63.7192 81.3233 63.4952 80.3153C63.2712 79.2887 63.1592 77.9727 63.1592 76.3673V68.6953H66.2392V76.2273C66.2392 77.366 66.2765 78.3087 66.3512 79.0553C66.4445 79.7833 66.6779 80.4087 67.0512 80.9313C67.4245 81.454 67.9939 81.7153 68.7592 81.7153C69.5805 81.7153 70.1965 81.4073 70.6072 80.7913C71.0179 80.1567 71.2232 79.3727 71.2232 78.4393V68.6953H74.3032V80.6793ZM82.6535 69.6193C82.0935 69.6193 81.6455 69.7687 81.3095 70.0673C80.9735 70.3473 80.8055 70.758 80.8055 71.2993C80.8055 72.0273 81.0482 72.6247 81.5335 73.0913C82.0375 73.5393 82.8029 74.0433 83.8295 74.6033C84.6509 75.0513 85.3042 75.4527 85.7895 75.8073C86.2935 76.162 86.7229 76.6193 87.0775 77.1793C87.4322 77.7207 87.6095 78.3833 87.6095 79.1673C87.6095 80.586 87.0962 81.678 86.0695 82.4433C85.0615 83.2087 83.7735 83.5913 82.2055 83.5913C80.8429 83.5913 79.6949 83.358 78.7615 82.8913C77.8469 82.4247 77.3895 81.65 77.3895 80.5673C77.3895 79.9327 77.5855 79.4473 77.9775 79.1113C78.3695 78.7753 78.9015 78.6073 79.5735 78.6073C80.0589 78.6073 80.4322 78.71 80.6935 78.9153C80.5442 79.3633 80.4695 79.7833 80.4695 80.1753C80.4695 80.7727 80.6562 81.2487 81.0295 81.6033C81.4029 81.9393 81.9069 82.1073 82.5415 82.1073C83.2322 82.1073 83.7549 81.93 84.1095 81.5753C84.4829 81.202 84.6695 80.6607 84.6695 79.9513C84.6695 79.2233 84.4175 78.6353 83.9135 78.1873C83.4282 77.7207 82.6722 77.2073 81.6455 76.6473C80.8242 76.1807 80.1615 75.77 79.6575 75.4153C79.1722 75.0607 78.7522 74.6127 78.3975 74.0713C78.0429 73.5113 77.8655 72.8393 77.8655 72.0553C77.8655 70.8047 78.3695 69.8433 79.3775 69.1713C80.3855 68.4807 81.6082 68.1353 83.0455 68.1353C84.3709 68.1353 85.4535 68.378 86.2935 68.8633C87.1522 69.33 87.5815 70.1047 87.5815 71.1873C87.5815 71.822 87.3762 72.3073 86.9655 72.6433C86.5735 72.9793 86.0415 73.1473 85.3695 73.1473C84.8842 73.1473 84.5109 73.0447 84.2495 72.8393C84.3989 72.3913 84.4735 71.9713 84.4735 71.5793C84.4735 70.9633 84.3149 70.4873 83.9975 70.1513C83.6989 69.7967 83.2509 69.6193 82.6535 69.6193ZM88.8509 69.9553L88.8229 69.1153C89.6629 68.7793 90.4563 68.3313 91.2029 67.7713C91.9683 67.2113 92.6123 66.5953 93.1349 65.9233H94.0029V68.6953H96.5789V69.9553H93.9469V80.1473C93.9469 80.7073 94.0496 81.1273 94.2549 81.4073C94.4603 81.6873 94.7869 81.8647 95.2349 81.9393C95.1416 82.3687 94.8896 82.714 94.4789 82.9753C94.0869 83.2553 93.6296 83.3953 93.1069 83.3953C91.5949 83.3953 90.8389 82.5367 90.8389 80.8193V69.9553H88.8509Z" fill="white"/>
<path d="M57.1523 53.2222C56.3496 53.2222 55.827 53.7636 55.5843 54.8462C55.3603 55.9102 55.2483 57.1889 55.2483 58.6822V65.9062H52.1683V51.6262L54.7443 51.2902L54.8843 53.8102C55.1456 52.9702 55.603 52.3076 56.2563 51.8222C56.9096 51.3182 57.6656 51.0662 58.5243 51.0662C59.4576 51.0662 60.195 51.3369 60.7363 51.8782C61.2963 52.4196 61.5763 53.1569 61.5763 54.0902C61.5763 55.6022 60.8483 56.3582 59.3923 56.3582C58.907 56.3582 58.5336 56.2556 58.2723 56.0502C58.403 55.5649 58.4683 55.1449 58.4683 54.7902C58.4683 53.7449 58.0296 53.2222 57.1523 53.2222ZM70.8032 64.6182C70.4485 65.2716 69.9259 65.7476 69.2352 66.0463C68.5632 66.3636 67.7979 66.5223 66.9392 66.5223C65.6512 66.5223 64.5685 66.1303 63.6912 65.3462C62.8325 64.5622 62.4032 63.5449 62.4032 62.2942C62.4032 59.2702 65.1005 57.7582 70.4952 57.7582V55.3222C70.4952 54.3889 70.3552 53.6982 70.0752 53.2502C69.7952 52.7836 69.2632 52.5502 68.4792 52.5502C67.8259 52.5502 67.2845 52.7276 66.8552 53.0822C66.4259 53.4182 66.2112 53.8942 66.2112 54.5102C66.2112 54.9022 66.2859 55.3222 66.4352 55.7702C66.1739 55.9756 65.8005 56.0782 65.3152 56.0782C64.6432 56.0782 64.1112 55.9102 63.7192 55.5742C63.3272 55.2382 63.1312 54.7529 63.1312 54.1182C63.1312 53.2222 63.6352 52.4942 64.6432 51.9342C65.6512 51.3556 66.9952 51.0662 68.6752 51.0662C69.9072 51.0662 70.8779 51.2529 71.5872 51.6262C72.2965 51.9809 72.8005 52.5409 73.0992 53.3062C73.4165 54.0529 73.5752 55.0609 73.5752 56.3302V63.6102C73.5752 64.5249 73.8645 65.1409 74.4432 65.4582C74.2939 65.7382 74.0699 65.9529 73.7712 66.1023C73.4912 66.2516 73.1645 66.3263 72.7912 66.3263C72.2499 66.3263 71.8019 66.1769 71.4472 65.8782C71.0925 65.5609 70.8779 65.1409 70.8032 64.6182ZM68.0312 64.6462C68.8525 64.6462 69.4685 64.3382 69.8792 63.7222C70.2899 63.0876 70.4952 62.3036 70.4952 61.3702V59.1582C67.3405 59.1582 65.7632 60.1662 65.7632 62.1822C65.7632 62.9289 65.9592 63.5262 66.3512 63.9742C66.7619 64.4222 67.3219 64.6462 68.0312 64.6462ZM87.2112 51.6262L83.0392 65.9062H79.2312L75.3672 51.6262H78.5592L81.4152 64.0302L84.2712 51.6262H87.2112ZM98.0437 61.9582C98.473 62.1636 98.6877 62.5649 98.6877 63.1622C98.6877 63.8342 98.4637 64.4316 98.0157 64.9542C97.5677 65.4582 96.989 65.8409 96.2797 66.1023C95.5704 66.3823 94.8517 66.5223 94.1237 66.5223C92.0704 66.5223 90.549 65.8596 89.5597 64.5342C88.5704 63.1902 88.0757 61.3889 88.0757 59.1302C88.0757 56.7222 88.6077 54.7809 89.6717 53.3062C90.7544 51.8129 92.3877 51.0662 94.5717 51.0662C95.953 51.0662 97.0637 51.4302 97.9037 52.1582C98.7437 52.8676 99.1637 53.8756 99.1637 55.1822C99.1637 56.8062 98.5944 57.9449 97.4557 58.5982C96.3357 59.2516 94.805 59.5782 92.8637 59.5782C92.3224 59.5782 91.809 59.5596 91.3237 59.5222C91.3797 60.9969 91.6224 62.1729 92.0517 63.0502C92.4997 63.9276 93.2837 64.3662 94.4037 64.3662C95.225 64.3662 95.9437 64.1609 96.5597 63.7502C97.1944 63.3209 97.689 62.7236 98.0437 61.9582ZM94.1237 52.6622C93.1157 52.6622 92.4064 53.1942 91.9957 54.2582C91.585 55.3036 91.361 56.5916 91.3237 58.1222C91.8837 58.1596 92.2944 58.1782 92.5557 58.1782C94.9077 58.1782 96.0837 57.2356 96.0837 55.3502C96.0837 54.5849 95.9157 53.9502 95.5797 53.4462C95.2624 52.9236 94.777 52.6622 94.1237 52.6622ZM104.988 45.9702V63.6102C104.988 64.5249 105.277 65.1409 105.856 65.4582C105.707 65.7382 105.455 65.9529 105.1 66.1023C104.764 66.2516 104.409 66.3263 104.036 66.3263C103.327 66.3263 102.795 66.1209 102.44 65.7102C102.085 65.2996 101.908 64.7209 101.908 63.9742V46.3062L104.988 45.9702Z" fill="white"/>
<line x1="32.8672" y1="1.00024" x2="2.72729" y2="1.00025" stroke="white" stroke-width="2"/>
<line x1="1.72656" y1="30.7427" x2="1.72656" y2="-1.52836e-05" stroke="white" stroke-width="2"/>
<line x1="87.3594" y1="94.9346" x2="115.996" y2="94.9346" stroke="white" stroke-width="2"/>
<line x1="117" y1="66.7246" x2="117" y2="95.9345" stroke="white" stroke-width="2"/>
<rect x="1" y="37.8901" width="4.3057" height="4.3057" fill="white"/>
<rect x="1" y="45.6406" width="4.3057" height="4.3057" fill="white"/>
</svg>
