<svg width="22" height="17" viewBox="0 0 22 17" fill="none" xmlns="http://www.w3.org/2000/svg">
<path d="M1 16V15.0625C1 14.2007 1.25866 13.3473 1.7612 12.5511C2.26375 11.7549 3.00035 11.0315 3.92893 10.4221C4.85752 9.81273 5.95991 9.32934 7.17317 8.99954C8.38642 8.66974 9.68678 8.5 11 8.5C12.3132 8.5 13.6136 8.66974 14.8268 8.99954C16.0401 9.32934 17.1425 9.81273 18.0711 10.4221C18.9997 11.0315 19.7362 11.7549 20.2388 12.5511C20.7413 13.3473 21 14.2007 21 15.0625V16" stroke="#009EB7" stroke-linecap="round" stroke-linejoin="round"/>
<path d="M10.9994 8.5C12.515 8.5 13.9684 8.10491 15.0401 7.40165C16.1117 6.69839 16.7137 5.74456 16.7137 4.75C16.7137 3.75544 16.1117 2.80161 15.0401 2.09835C13.9684 1.39509 12.515 1 10.9994 1C9.48392 1 8.03047 1.39509 6.95883 2.09835C5.8872 2.80161 5.28516 3.75544 5.28516 4.75C5.28516 5.74456 5.8872 6.69839 6.95883 7.40165C8.03047 8.10491 9.48392 8.5 10.9994 8.5V8.5Z" stroke="#009EB7" stroke-linecap="round" stroke-linejoin="round"/>
</svg>
