<svg width="112" height="112" viewBox="0 0 112 112" fill="none" xmlns="http://www.w3.org/2000/svg">
<path d="M0 15C0 6.71573 6.71573 0 15 0H97C105.284 0 112 6.71573 112 15V97C112 105.284 105.284 112 97 112H15C6.71573 112 0 105.284 0 97V15Z" fill="#009EB7" fill-opacity="0.5"/>
<path d="M16 31C16 22.7157 22.7157 16 31 16H81C89.2843 16 96 22.7157 96 31V81C96 89.2843 89.2843 96 81 96H31C22.7157 96 16 89.2843 16 81V31Z" fill="#009EB7" fill-opacity="0.4"/>
<path d="M69.1799 45.3571H62.9439V43.5714C62.9425 42.6247 62.5666 41.7171 61.8987 41.0476C61.2307 40.3781 60.3252 40.0014 59.3805 40H52.2537C51.309 40.0014 50.4035 40.3781 49.7355 41.0476C49.0676 41.7171 48.6917 42.6247 48.6903 43.5714V45.3571H42.4543C41.2732 45.3581 40.1408 45.8287 39.3057 46.6657C38.4705 47.5028 38.0009 48.6377 38 49.8214V67.6786C38.0009 68.8623 38.4705 69.9972 39.3057 70.8343C40.1408 71.6713 41.2732 72.1419 42.4543 72.1429H69.1799C70.361 72.1419 71.4934 71.6713 72.3285 70.8343C73.1637 69.9972 73.6332 68.8623 73.6342 67.6786V49.8214C73.6332 48.6377 73.1637 47.5028 72.3285 46.6657C71.4934 45.8287 70.361 45.3581 69.1799 45.3571ZM50.472 43.5714C50.472 43.0978 50.6597 42.6436 50.9938 42.3087C51.328 41.9739 51.7811 41.7857 52.2537 41.7857H59.3805C59.8531 41.7857 60.3062 41.9739 60.6404 42.3087C60.9745 42.6436 61.1622 43.0978 61.1622 43.5714V45.3571H50.472V43.5714ZM71.8525 67.6786C71.8525 68.389 71.5709 69.0703 71.0697 69.5726C70.5685 70.0749 69.8887 70.3571 69.1799 70.3571H42.4543C41.7455 70.3571 41.0657 70.0749 40.5645 69.5726C40.0633 69.0703 39.7817 68.389 39.7817 67.6786V56.1196L50.1905 59.5982C50.2814 59.6278 50.3764 59.6429 50.472 59.6429H61.1622C61.2578 59.6429 61.3528 59.6278 61.4437 59.5982L71.8525 56.1196V67.6786ZM71.8525 54.2964C71.7573 54.2929 71.6622 54.3049 71.571 54.3321L61.0179 57.8571H50.6163L40.0632 54.3304C39.972 54.3031 39.8769 54.2911 39.7817 54.2946V49.8214C39.7817 49.111 40.0633 48.4297 40.5645 47.9274C41.0657 47.4251 41.7455 47.1429 42.4543 47.1429H69.1799C69.8887 47.1429 70.5685 47.4251 71.0697 47.9274C71.5709 48.4297 71.8525 49.111 71.8525 49.8214V54.2964Z" fill="white"/>
</svg>
