<svg width="21" height="22" viewBox="0 0 21 22" fill="none" xmlns="http://www.w3.org/2000/svg">
<path d="M16.8584 1.1L19.6584 2.5L16.7317 3.96334L16.4 4.12918V4.5V6.5V6.74853L16.5757 6.92426L19.4 9.74853V20.9H9.6V18.5C9.6 17.8104 9.32607 17.1491 8.83848 16.6615C8.35088 16.1739 7.68956 15.9 7 15.9C6.31044 15.9 5.64912 16.1739 5.16152 16.6615C4.67393 17.1491 4.4 17.8104 4.4 18.5V20.9H0.6V13.1H1.4V14.5V15.1H2H4H4.6V14.5V13.1H5.4V14.5V15.1H6H8H8.6V14.5V13.1H9.4V14.5V15.1H10H12H12.6V14.5V9.74853L15.4243 6.92426L15.6 6.74853V6.5V1.1H16.8584ZM14.4 12.5V13.1H15H17H17.6V12.5V10.7C17.6 9.8157 16.9792 8.9 16 8.9C15.0208 8.9 14.4 9.81571 14.4 10.7V12.5Z" stroke="white" stroke-width="1.2"/>
</svg>
