<svg width="21" height="22" viewBox="0 0 21 22" fill="none" xmlns="http://www.w3.org/2000/svg">
<path d="M20.1 19.9H19.5C18.9248 19.9 18.3621 19.8099 17.8135 19.6301C17.3516 19.4788 16.9136 19.2645 16.4997 18.9886C16.0851 19.2636 15.6457 19.4742 15.1821 19.6189C14.635 19.7895 14.074 19.875 13.5005 19.875C13.5003 19.875 13.5002 19.875 13.5 19.875V19.475C12.9667 19.4757 12.45 19.3967 11.95 19.238C11.45 19.0793 10.9667 18.8333 10.5 18.5L20.1 19.9ZM20.1 19.9V21.1H19.5C19.016 21.1 18.5404 21.0413 18.0723 20.924C17.6037 20.8066 17.1409 20.6305 16.6834 20.3945L16.4998 20.2998L16.3162 20.3947C15.8588 20.6313 15.3961 20.8076 14.9277 20.925C14.4598 21.0423 13.9843 21.1006 13.5005 21.1H13.5C13.016 21.1 12.5404 21.0413 12.0723 20.924C11.6037 20.8066 11.1409 20.6305 10.6834 20.3945L10.4998 20.2998L10.3162 20.3947C9.85885 20.6313 9.39612 20.8076 8.92774 20.925C8.45979 21.0423 7.9843 21.1006 7.50052 21.1H7.5C7.01605 21.1 6.54038 21.0413 6.07226 20.924C5.60372 20.8066 5.14085 20.6305 4.68338 20.3945L4.49975 20.2998L4.31623 20.3947C3.85885 20.6313 3.39612 20.8076 2.92774 20.925C2.45979 21.0423 1.9843 21.1006 1.50052 21.1H1.5H0.9V19.9H1.5C2.07581 19.9 2.63521 19.8099 3.17649 19.6295C3.63368 19.4771 4.07496 19.2612 4.50022 18.9841L20.1 19.9ZM10.5 20.75C10.9833 20.9993 11.475 21.1867 11.975 21.312C12.475 21.4373 12.9833 21.5 13.5 21.5C14.0167 21.5007 14.525 21.4383 15.025 21.313C15.525 21.1877 16.0167 21 16.5 20.75H10.5ZM10.5 20.75C10.0167 21 9.525 21.1877 9.025 21.313M10.5 20.75L9.025 21.313M18.6 10.089C17.5282 10.0292 16.5498 9.72675 15.6581 9.18342C14.6463 8.56685 13.8523 7.76402 13.2699 6.77243L13.0079 6.32637L12.6588 6.67554C12.6463 6.68449 12.6271 6.69783 12.6001 6.71623C12.5446 6.75398 12.4635 6.80785 12.3557 6.87845C12.1371 7.02174 11.8981 7.1812 11.6388 7.35677L11.6386 7.35685L10.9007 7.85679C10.9007 7.85681 10.9007 7.85683 10.9006 7.85685C10.6694 8.01344 10.5109 8.12309 10.435 8.18L10.0218 8.48991L10.4252 8.81244L11.113 9.36224L18.6 10.089ZM18.6 10.089V8.88636C17.7502 8.82773 16.9622 8.58004 16.242 8.14168C15.4203 7.64147 14.7718 6.98529 14.3037 6.17511L14.3017 6.17165L14.3017 6.17164L13.4267 4.62164L13.4264 4.62111C13.3013 4.3988 13.1567 4.23921 12.9973 4.12888C12.8256 4.01001 12.6584 3.94454 12.4934 3.92098L12.4854 3.91983L12.4774 3.91835L7.08989 2.92337L4.05523 5.00428L4.73022 5.99427L7.22476 4.29445L7.32667 4.225H7.45C7.51265 4.225 7.58564 4.23597 7.64559 4.24621C7.71403 4.2579 7.79847 4.27471 7.89718 4.29596L7.89905 4.29636C8.08323 4.33694 8.28996 4.37754 8.51958 4.4181C8.7579 4.4602 8.97607 4.50291 9.17376 4.5463C9.26666 4.5667 9.33835 4.58108 9.39058 4.59018C9.41669 4.59472 9.43548 4.59751 9.4481 4.59906C9.45199 4.59954 9.45476 4.59983 9.45651 4.6H10.7585L9.67366 5.33163L7.52366 6.78163L7.52273 6.78225C7.28559 6.94123 7.11539 7.14471 7.00448 7.39829C6.89383 7.65128 6.86734 7.89711 6.91723 8.14656L6.91956 8.15818L6.91938 8.15821L7.44438 11.2582L7.56001 11.941L6.91081 11.7C6.20813 11.4392 5.55051 11.2408 4.93749 11.1033C4.32378 10.9657 3.79584 10.9 3.35 10.9C2.96948 10.9 2.6051 10.9729 2.25385 11.1192C2.12608 11.1725 2.04708 11.2447 1.99521 11.3333C1.94044 11.4269 1.9 11.5666 1.9 11.775C1.9 12.3442 2.28572 13.1123 3.2376 14.097C4.17089 15.0625 5.33296 16.0261 6.72782 16.9868C6.84006 17.0212 6.95575 17.048 7.07507 17.067C7.21212 17.0889 7.35367 17.1 7.5 17.1C8.03405 17.1 8.52606 16.9747 8.98267 16.7243C9.45798 16.4636 9.86087 16.1361 10.1946 15.7416L10.5 15.3808L10.8054 15.7416C11.1391 16.1361 11.542 16.4636 12.0173 16.7243C12.4739 16.9747 12.966 17.1 13.5 17.1C13.9314 17.1 14.3261 17.0185 14.6889 16.8589C14.9198 16.7573 15.1396 16.6361 15.3483 16.495C15.2422 16.4107 15.1344 16.3248 15.0251 16.2373C14.7827 16.0434 14.5322 15.8575 14.2734 15.6796L14.1 15.5604V15.35V11.694M18.6 10.089L14.1 11.694M14.1 11.694C13.981 11.6007 13.8037 11.4625 13.5675 11.2788C13.1931 10.9877 12.785 10.6712 12.3432 10.3294C11.8998 9.98629 11.4898 9.66397 11.1132 9.36244L14.1 11.694ZM9.025 21.313C8.525 21.4383 8.01667 21.5007 7.5 21.5L9.025 21.313ZM9.18211 19.6189C9.6471 19.4738 10.0877 19.2623 10.5034 18.9862L4.5 18.5C4.96667 18.8333 5.45 19.0793 5.95 19.238C6.45 19.3967 6.96667 19.4757 7.5 19.475V19.875C7.50017 19.875 7.50033 19.875 7.5005 19.875C8.07401 19.875 8.63501 19.7895 9.18211 19.6189ZM9.04154 9.28117L8.23658 8.67134L8.40565 9.66697L8.85565 12.317L8.89025 12.5207L9.07647 12.6104C9.5191 12.8235 10.0717 13.1081 10.7355 13.4653C11.3996 13.8225 11.9177 14.1145 12.2925 14.3419L12.9 14.7107V14V12.5V12.2859L12.722 12.1673C12.7226 12.1677 12.7193 12.1654 12.7101 12.1587C12.7013 12.1522 12.6894 12.1434 12.6743 12.132C12.6441 12.1091 12.6035 12.0778 12.5521 12.0377C12.4494 11.9577 12.3068 11.8452 12.1238 11.6998C11.7554 11.4071 11.3538 11.0932 10.9192 10.7582L10.9189 10.758C10.4873 10.4259 10.0849 10.1108 9.71174 9.81255C9.33887 9.51451 9.11283 9.33517 9.04154 9.28117ZM13.9 2.00049V2C13.9 1.55703 14.0532 1.1875 14.3708 0.869844C14.6885 0.552203 15.0575 0.399465 15.4995 0.400002H15.5C15.943 0.400002 16.3125 0.553188 16.6302 0.870845C16.9478 1.18849 17.1005 1.55753 17.1 1.99952V2C17.1 2.44297 16.9468 2.8125 16.6292 3.13016C16.3115 3.4478 15.9425 3.60054 15.5005 3.6H15.5C15.0568 3.6 14.6872 3.44698 14.3696 3.12992C14.0524 2.81324 13.8995 2.44408 13.9 2.00049Z" stroke="white" stroke-width="0.8"/>
</svg>
