<svg width="23" height="22" viewBox="0 0 23 22" fill="none" xmlns="http://www.w3.org/2000/svg">
<path d="M18.4998 20.0001L20.1948 15.3376C20.2787 15.1071 20.2749 14.8538 20.1841 14.6259C20.0934 14.3981 19.9221 14.2115 19.7028 14.1016L11.9468 10.2236C11.808 10.1543 11.655 10.1182 11.4998 10.1182C11.3446 10.1182 11.1916 10.1543 11.0528 10.2236L3.29681 14.1016C3.0774 14.2114 2.90598 14.3979 2.81517 14.6258C2.72436 14.8537 2.7205 15.1071 2.80431 15.3376L4.49981 20.0001" stroke="white" stroke-width="1.5" stroke-linejoin="round"/>
<path d="M14 6V2C14 1.73478 13.8946 1.48043 13.7071 1.29289C13.5196 1.10536 13.2652 1 13 1H10C9.73478 1 9.48043 1.10536 9.29289 1.29289C9.10536 1.48043 9 1.73478 9 2V6M17 6H6C5.73478 6 5.48043 6.10536 5.29289 6.29289C5.10536 6.48043 5 6.73478 5 7V13L11.081 10.1935C11.2124 10.1329 11.3553 10.1015 11.5 10.1015C11.6447 10.1015 11.7876 10.1329 11.919 10.1935L18 13V7C18 6.73478 17.8946 6.48043 17.7071 6.29289C17.5196 6.10536 17.2652 6 17 6Z" stroke="white" stroke-width="1.5" stroke-linecap="round" stroke-linejoin="round"/>
<path d="M11.5 15V19" stroke="white" stroke-width="1.5" stroke-linecap="round"/>
<path d="M1.5 21C3.5 21 3.5 20 5 20C6.5 20 6.5 21 8 21C9.5 21 9.75 20 11.5 20C13.25 20 13.5 21 15 21C16.5 21 16.5 20 18 20C19.5 20 19.5 21 21.5 21" stroke="white" stroke-width="1.5" stroke-linecap="round" stroke-linejoin="round"/>
</svg>
